%
M48
M72
T01C0.0236
T02C0.0320
T03C0.0360
T04C0.0400
%
T01
X10020Y3300
X10020Y5780
T02
X16320Y9380
X17320Y9380
X17730Y6455
X17730Y5455
X17730Y4455
X17730Y3455
T03
X16780Y2500
X15780Y2500
X14780Y2500
T04
X4380Y840
X5380Y840
X6380Y840
X7380Y840
X8380Y840
X9380Y840
X10380Y840
X11380Y840
X13380Y840
X14380Y840
X15380Y840
X16380Y840
X17380Y840
X18380Y840
X9880Y15440
X8880Y15440
X7880Y15440
X6880Y15440
X5880Y15440
X4880Y15440
X4780Y17480
X3780Y17480
X2780Y17480
X1780Y17480
X780Y17480
X5780Y17480
X6780Y17480
X7780Y17480
X8780Y17480
X9780Y17480
X11380Y17480
X12380Y17480
X13380Y17480
X14380Y17480
X15380Y17480
X16380Y17480
X17380Y17480
X18380Y17480
M30
