G75*
%MOIN*%
%OFA0B0*%
%FSLAX24Y24*%
%IPPOS*%
%LPD*%
%AMOC8*
5,1,8,0,0,1.08239X$1,22.5*
%
%ADD10OC8,0.0740*%
%ADD11C,0.0640*%
%ADD12R,0.0434X0.0591*%
%ADD13R,0.0750X0.0670*%
%ADD14R,0.0473X0.0434*%
%ADD15OC8,0.0560*%
%ADD16C,0.0600*%
%ADD17R,0.0552X0.0631*%
D10*
X004380Y000840D03*
X005380Y000840D03*
X006380Y000840D03*
X007380Y000840D03*
X008380Y000840D03*
X009380Y000840D03*
X010380Y000840D03*
X011380Y000840D03*
X013380Y000840D03*
X014380Y000840D03*
X015380Y000840D03*
X016380Y000840D03*
X017380Y000840D03*
X018380Y000840D03*
X018380Y017480D03*
X017380Y017480D03*
X016380Y017480D03*
X015380Y017480D03*
X014380Y017480D03*
X013380Y017480D03*
X012380Y017480D03*
X011380Y017480D03*
X009780Y017480D03*
X008780Y017480D03*
X007780Y017480D03*
X006780Y017480D03*
X005780Y017480D03*
X004780Y017480D03*
X003780Y017480D03*
X002780Y017480D03*
X001780Y017480D03*
X000780Y017480D03*
D11*
X004880Y015740D02*
X004880Y015140D01*
X005880Y015140D02*
X005880Y015740D01*
X006880Y015740D02*
X006880Y015140D01*
X007880Y015140D02*
X007880Y015740D01*
X008880Y015740D02*
X008880Y015140D01*
X009880Y015140D02*
X009880Y015740D01*
D12*
X013300Y004693D03*
X012926Y003827D03*
X013674Y003827D03*
D13*
X011620Y005220D03*
X011620Y006340D03*
D14*
X011620Y004435D03*
X011620Y003765D03*
X012965Y002740D03*
X013635Y002740D03*
D15*
X017730Y003455D03*
X017730Y004455D03*
X017730Y005455D03*
X017730Y006455D03*
X017320Y009380D03*
X016320Y009380D03*
D16*
X016780Y002780D02*
X016780Y002220D01*
X015780Y002220D02*
X015780Y002780D01*
X014780Y002780D02*
X014780Y002220D01*
D17*
X016485Y007860D03*
X017155Y007860D03*
M02*
