G75*
%MOIN*%
%OFA0B0*%
%FSLAX24Y24*%
%IPPOS*%
%LPD*%
%AMOC8*
5,1,8,0,0,1.08239X$1,22.5*
%
%ADD10OC8,0.0700*%
%ADD11C,0.0600*%
%ADD12R,0.0394X0.0551*%
%ADD13R,0.0710X0.0630*%
%ADD14R,0.0433X0.0394*%
%ADD15OC8,0.0520*%
%ADD16C,0.0560*%
%ADD17R,0.0512X0.0591*%
%ADD18C,0.0160*%
%ADD19R,0.0396X0.0396*%
%ADD20C,0.0100*%
D10*
X004380Y000840D03*
X005380Y000840D03*
X006380Y000840D03*
X007380Y000840D03*
X008380Y000840D03*
X009380Y000840D03*
X010380Y000840D03*
X011380Y000840D03*
X013380Y000840D03*
X014380Y000840D03*
X015380Y000840D03*
X016380Y000840D03*
X017380Y000840D03*
X018380Y000840D03*
X018380Y017480D03*
X017380Y017480D03*
X016380Y017480D03*
X015380Y017480D03*
X014380Y017480D03*
X013380Y017480D03*
X012380Y017480D03*
X011380Y017480D03*
X009780Y017480D03*
X008780Y017480D03*
X007780Y017480D03*
X006780Y017480D03*
X005780Y017480D03*
X004780Y017480D03*
X003780Y017480D03*
X002780Y017480D03*
X001780Y017480D03*
X000780Y017480D03*
D11*
X004880Y015740D02*
X004880Y015140D01*
X005880Y015140D02*
X005880Y015740D01*
X006880Y015740D02*
X006880Y015140D01*
X007880Y015140D02*
X007880Y015740D01*
X008880Y015740D02*
X008880Y015140D01*
X009880Y015140D02*
X009880Y015740D01*
D12*
X013300Y004693D03*
X012926Y003827D03*
X013674Y003827D03*
D13*
X011620Y005220D03*
X011620Y006340D03*
D14*
X011620Y004435D03*
X011620Y003765D03*
X012965Y002740D03*
X013635Y002740D03*
D15*
X017730Y003455D03*
X017730Y004455D03*
X017730Y005455D03*
X017730Y006455D03*
X017320Y009380D03*
X016320Y009380D03*
D16*
X016780Y002780D02*
X016780Y002220D01*
X015780Y002220D02*
X015780Y002780D01*
X014780Y002780D02*
X014780Y002220D01*
D17*
X016485Y007860D03*
X017155Y007860D03*
D18*
X004040Y001278D02*
X004040Y014671D01*
X003940Y014914D01*
X003754Y015100D01*
X003511Y015200D01*
X000680Y015200D01*
X000633Y015205D01*
X000547Y015240D01*
X000480Y015307D01*
X000445Y015393D01*
X000440Y015440D01*
X000440Y017042D01*
X000552Y016930D01*
X001008Y016930D01*
X001280Y017202D01*
X001552Y016930D01*
X002008Y016930D01*
X002280Y017202D01*
X002552Y016930D01*
X003008Y016930D01*
X003294Y017216D01*
X003560Y016950D01*
X003760Y016950D01*
X003760Y017460D01*
X003800Y017460D01*
X003800Y016950D01*
X004000Y016950D01*
X004266Y017216D01*
X004552Y016930D01*
X005008Y016930D01*
X005280Y017202D01*
X005552Y016930D01*
X006008Y016930D01*
X006280Y017202D01*
X006552Y016930D01*
X007008Y016930D01*
X007280Y017202D01*
X007552Y016930D01*
X008008Y016930D01*
X008280Y017202D01*
X008552Y016930D01*
X008735Y016930D01*
X009091Y016194D01*
X008979Y016240D01*
X008781Y016240D01*
X008597Y016164D01*
X008456Y016023D01*
X008380Y015839D01*
X008380Y015041D01*
X008456Y014857D01*
X008597Y014716D01*
X008600Y014715D01*
X008600Y001456D01*
X008534Y001390D01*
X008152Y001390D01*
X007880Y001118D01*
X007608Y001390D01*
X007152Y001390D01*
X006880Y001118D01*
X006608Y001390D01*
X006152Y001390D01*
X005880Y001118D01*
X005608Y001390D01*
X005152Y001390D01*
X004880Y001118D01*
X004608Y001390D01*
X004152Y001390D01*
X004040Y001278D01*
X004040Y001352D02*
X004114Y001352D01*
X004040Y001510D02*
X008600Y001510D01*
X008600Y001669D02*
X004040Y001669D01*
X004040Y001827D02*
X008600Y001827D01*
X008600Y001986D02*
X004040Y001986D01*
X004040Y002144D02*
X008600Y002144D01*
X008600Y002303D02*
X004040Y002303D01*
X004040Y002461D02*
X008600Y002461D01*
X008600Y002620D02*
X004040Y002620D01*
X004040Y002778D02*
X008600Y002778D01*
X008600Y002937D02*
X004040Y002937D01*
X004040Y003095D02*
X008600Y003095D01*
X008600Y003254D02*
X004040Y003254D01*
X004040Y003412D02*
X008600Y003412D01*
X008600Y003571D02*
X004040Y003571D01*
X004040Y003729D02*
X008600Y003729D01*
X008600Y003888D02*
X004040Y003888D01*
X004040Y004046D02*
X008600Y004046D01*
X008600Y004205D02*
X004040Y004205D01*
X004040Y004363D02*
X008600Y004363D01*
X008600Y004522D02*
X004040Y004522D01*
X004040Y004680D02*
X008600Y004680D01*
X008600Y004839D02*
X004040Y004839D01*
X004040Y004997D02*
X008600Y004997D01*
X008600Y005156D02*
X004040Y005156D01*
X004040Y005314D02*
X008600Y005314D01*
X008600Y005473D02*
X004040Y005473D01*
X004040Y005631D02*
X008600Y005631D01*
X008600Y005790D02*
X004040Y005790D01*
X004040Y005948D02*
X008600Y005948D01*
X008600Y006107D02*
X004040Y006107D01*
X004040Y006265D02*
X008600Y006265D01*
X008600Y006424D02*
X004040Y006424D01*
X004040Y006582D02*
X008600Y006582D01*
X008600Y006741D02*
X004040Y006741D01*
X004040Y006899D02*
X008600Y006899D01*
X008600Y007058D02*
X004040Y007058D01*
X004040Y007216D02*
X008600Y007216D01*
X008600Y007375D02*
X004040Y007375D01*
X004040Y007533D02*
X008600Y007533D01*
X008600Y007692D02*
X004040Y007692D01*
X004040Y007850D02*
X008600Y007850D01*
X008600Y008009D02*
X004040Y008009D01*
X004040Y008167D02*
X008600Y008167D01*
X008600Y008326D02*
X004040Y008326D01*
X004040Y008484D02*
X008600Y008484D01*
X008600Y008643D02*
X004040Y008643D01*
X004040Y008801D02*
X008600Y008801D01*
X008600Y008960D02*
X004040Y008960D01*
X004040Y009118D02*
X008600Y009118D01*
X008600Y009277D02*
X004040Y009277D01*
X004040Y009435D02*
X008600Y009435D01*
X008600Y009594D02*
X004040Y009594D01*
X004040Y009752D02*
X008600Y009752D01*
X008600Y009911D02*
X004040Y009911D01*
X004040Y010069D02*
X008600Y010069D01*
X008600Y010228D02*
X004040Y010228D01*
X004040Y010386D02*
X008600Y010386D01*
X008600Y010545D02*
X004040Y010545D01*
X004040Y010703D02*
X008600Y010703D01*
X008600Y010862D02*
X004040Y010862D01*
X004040Y011020D02*
X008600Y011020D01*
X008600Y011179D02*
X004040Y011179D01*
X004040Y011337D02*
X008600Y011337D01*
X008600Y011496D02*
X004040Y011496D01*
X004040Y011654D02*
X008600Y011654D01*
X008600Y011813D02*
X004040Y011813D01*
X004040Y011971D02*
X008600Y011971D01*
X008600Y012130D02*
X004040Y012130D01*
X004040Y012288D02*
X008600Y012288D01*
X008600Y012447D02*
X004040Y012447D01*
X004040Y012605D02*
X008600Y012605D01*
X008600Y012764D02*
X004040Y012764D01*
X004040Y012922D02*
X008600Y012922D01*
X008600Y013081D02*
X004040Y013081D01*
X004040Y013239D02*
X008600Y013239D01*
X008600Y013398D02*
X004040Y013398D01*
X004040Y013556D02*
X008600Y013556D01*
X008600Y013715D02*
X004040Y013715D01*
X004040Y013873D02*
X008600Y013873D01*
X008600Y014032D02*
X004040Y014032D01*
X004040Y014190D02*
X008600Y014190D01*
X008600Y014349D02*
X004040Y014349D01*
X004040Y014507D02*
X008600Y014507D01*
X008600Y014666D02*
X007953Y014666D01*
X007918Y014660D02*
X007992Y014672D01*
X008064Y014695D01*
X008132Y014729D01*
X008193Y014774D01*
X008246Y014827D01*
X008291Y014888D01*
X008325Y014956D01*
X008348Y015028D01*
X008360Y015102D01*
X008360Y015420D01*
X007900Y015420D01*
X007900Y015460D01*
X007860Y015460D01*
X007860Y016220D01*
X007842Y016220D01*
X007768Y016208D01*
X007696Y016185D01*
X007628Y016151D01*
X007567Y016106D01*
X007514Y016053D01*
X007469Y015992D01*
X007435Y015924D01*
X007412Y015852D01*
X007400Y015778D01*
X007400Y015460D01*
X007860Y015460D01*
X007860Y015420D01*
X007400Y015420D01*
X007400Y015102D01*
X007412Y015028D01*
X007435Y014956D01*
X007469Y014888D01*
X007514Y014827D01*
X007567Y014774D01*
X007628Y014729D01*
X007696Y014695D01*
X007768Y014672D01*
X007842Y014660D01*
X007860Y014660D01*
X007860Y015420D01*
X007900Y015420D01*
X007900Y014660D01*
X007918Y014660D01*
X007900Y014666D02*
X007860Y014666D01*
X007807Y014666D02*
X007041Y014666D01*
X006979Y014640D02*
X007163Y014716D01*
X007304Y014857D01*
X007380Y015041D01*
X007380Y015839D01*
X007304Y016023D01*
X007163Y016164D01*
X006979Y016240D01*
X006781Y016240D01*
X006597Y016164D01*
X006456Y016023D01*
X006380Y015839D01*
X006304Y016023D01*
X006163Y016164D01*
X005979Y016240D01*
X005781Y016240D01*
X005597Y016164D01*
X005456Y016023D01*
X005380Y015839D01*
X005304Y016023D01*
X005163Y016164D01*
X004979Y016240D01*
X004781Y016240D01*
X004597Y016164D01*
X004456Y016023D01*
X004380Y015839D01*
X004380Y015041D01*
X004456Y014857D01*
X004597Y014716D01*
X004781Y014640D01*
X004979Y014640D01*
X005163Y014716D01*
X005304Y014857D01*
X005380Y015041D01*
X005380Y015839D01*
X005380Y015041D01*
X005456Y014857D01*
X005597Y014716D01*
X005781Y014640D01*
X005979Y014640D01*
X006163Y014716D01*
X006304Y014857D01*
X006380Y015041D01*
X006380Y015839D01*
X006380Y015041D01*
X006456Y014857D01*
X006597Y014716D01*
X006781Y014640D01*
X006979Y014640D01*
X007271Y014824D02*
X007517Y014824D01*
X007426Y014983D02*
X007356Y014983D01*
X007380Y015141D02*
X007400Y015141D01*
X007400Y015300D02*
X007380Y015300D01*
X007380Y015458D02*
X007860Y015458D01*
X007900Y015458D02*
X008380Y015458D01*
X008360Y015460D02*
X008360Y015778D01*
X008348Y015852D01*
X008325Y015924D01*
X008291Y015992D01*
X008246Y016053D01*
X008193Y016106D01*
X008132Y016151D01*
X008064Y016185D01*
X007992Y016208D01*
X007918Y016220D01*
X007900Y016220D01*
X007900Y015460D01*
X008360Y015460D01*
X008360Y015617D02*
X008380Y015617D01*
X008380Y015775D02*
X008360Y015775D01*
X008320Y015934D02*
X008419Y015934D01*
X008525Y016092D02*
X008207Y016092D01*
X007900Y016092D02*
X007860Y016092D01*
X007860Y015934D02*
X007900Y015934D01*
X007900Y015775D02*
X007860Y015775D01*
X007860Y015617D02*
X007900Y015617D01*
X007900Y015300D02*
X007860Y015300D01*
X007860Y015141D02*
X007900Y015141D01*
X007900Y014983D02*
X007860Y014983D01*
X007860Y014824D02*
X007900Y014824D01*
X008243Y014824D02*
X008489Y014824D01*
X008404Y014983D02*
X008334Y014983D01*
X008360Y015141D02*
X008380Y015141D01*
X008380Y015300D02*
X008360Y015300D01*
X008880Y015440D02*
X008880Y001340D01*
X008380Y000840D01*
X007955Y001193D02*
X007805Y001193D01*
X007646Y001352D02*
X008114Y001352D01*
X007114Y001352D02*
X006646Y001352D01*
X006805Y001193D02*
X006955Y001193D01*
X006114Y001352D02*
X005646Y001352D01*
X005805Y001193D02*
X005955Y001193D01*
X005114Y001352D02*
X004646Y001352D01*
X004805Y001193D02*
X004955Y001193D01*
X009160Y001370D02*
X009160Y004324D01*
X009223Y004261D01*
X009301Y004183D01*
X009404Y004140D01*
X011218Y004140D01*
X011258Y004100D01*
X011203Y004045D01*
X011203Y003486D01*
X011321Y003369D01*
X011919Y003369D01*
X012036Y003485D01*
X012529Y003485D01*
X012529Y003468D01*
X012646Y003351D01*
X013206Y003351D01*
X013300Y003446D01*
X013394Y003351D01*
X013954Y003351D01*
X014071Y003468D01*
X014071Y003660D01*
X017285Y003660D01*
X017270Y003645D01*
X017270Y003264D01*
X017450Y003084D01*
X017450Y002966D01*
X017264Y002780D01*
X017260Y002780D01*
X017260Y002875D01*
X017187Y003052D01*
X017052Y003187D01*
X017018Y003201D01*
X016977Y003299D01*
X016739Y003537D01*
X016636Y003580D01*
X014924Y003580D01*
X014821Y003537D01*
X014743Y003459D01*
X014543Y003259D01*
X014514Y003189D01*
X014508Y003187D01*
X014373Y003052D01*
X014300Y002875D01*
X014300Y002125D01*
X014360Y001980D01*
X013900Y001980D01*
X013900Y002343D01*
X013934Y002343D01*
X014051Y002460D01*
X014051Y003020D01*
X013934Y003137D01*
X013335Y003137D01*
X013284Y003086D01*
X013251Y003105D01*
X013206Y003117D01*
X012984Y003117D01*
X012984Y002758D01*
X012947Y002758D01*
X012947Y002722D01*
X012569Y002722D01*
X012569Y002519D01*
X012581Y002474D01*
X012605Y002433D01*
X012638Y002399D01*
X012679Y002375D01*
X012725Y002363D01*
X012947Y002363D01*
X012947Y002722D01*
X012984Y002722D01*
X012984Y002363D01*
X013206Y002363D01*
X013251Y002375D01*
X013284Y002394D01*
X013335Y002343D01*
X013340Y002343D01*
X013340Y001724D01*
X013383Y001621D01*
X013461Y001543D01*
X013461Y001543D01*
X013463Y001541D01*
X013541Y001463D01*
X013644Y001420D01*
X015676Y001420D01*
X015779Y001463D01*
X015857Y001541D01*
X016017Y001701D01*
X016060Y001804D01*
X016060Y001821D01*
X016187Y001948D01*
X016260Y002125D01*
X016260Y002875D01*
X016200Y003020D01*
X016360Y003020D01*
X016300Y002875D01*
X016300Y002125D01*
X016373Y001948D01*
X016508Y001813D01*
X016685Y001740D01*
X016875Y001740D01*
X017052Y001813D01*
X017187Y001948D01*
X017260Y002125D01*
X017260Y002220D01*
X017436Y002220D01*
X017539Y002263D01*
X017617Y002341D01*
X017967Y002691D01*
X018010Y002794D01*
X018010Y003084D01*
X018190Y003264D01*
X018190Y003645D01*
X018170Y003666D01*
X018259Y003703D01*
X018337Y003781D01*
X018577Y004021D01*
X018620Y004124D01*
X018620Y006316D01*
X018577Y006419D01*
X018499Y006497D01*
X018304Y006692D01*
X018201Y006735D01*
X018101Y006735D01*
X017921Y006915D01*
X017540Y006915D01*
X017270Y006645D01*
X017270Y006264D01*
X017540Y005995D01*
X017921Y005995D01*
X018060Y006134D01*
X018060Y005776D01*
X017921Y005915D01*
X017540Y005915D01*
X017270Y005645D01*
X017270Y005264D01*
X017450Y005084D01*
X017450Y004825D01*
X017270Y004645D01*
X017270Y004264D01*
X017315Y004220D01*
X014036Y004220D01*
X013954Y004303D01*
X013665Y004303D01*
X013697Y004335D01*
X013697Y005052D01*
X013580Y005169D01*
X013020Y005169D01*
X012903Y005052D01*
X012903Y004973D01*
X012263Y004973D01*
X012175Y005061D01*
X012175Y005618D01*
X012058Y005735D01*
X011182Y005735D01*
X011065Y005618D01*
X011065Y004822D01*
X011182Y004705D01*
X011203Y004705D01*
X011203Y004700D01*
X009576Y004700D01*
X009500Y004776D01*
X009500Y013744D01*
X009539Y013783D01*
X009617Y013861D01*
X009660Y013964D01*
X009660Y014476D01*
X009630Y014548D01*
X009630Y014702D01*
X009781Y014640D01*
X009979Y014640D01*
X010163Y014716D01*
X010304Y014857D01*
X010380Y015041D01*
X010380Y015839D01*
X010304Y016023D01*
X010163Y016164D01*
X009979Y016240D01*
X009781Y016240D01*
X009660Y016190D01*
X009660Y016193D01*
X009663Y016201D01*
X009660Y016248D01*
X009660Y016296D01*
X009657Y016303D01*
X009656Y016312D01*
X009636Y016355D01*
X009617Y016399D01*
X009611Y016405D01*
X009243Y017165D01*
X009280Y017202D01*
X009552Y016930D01*
X010008Y016930D01*
X010330Y017252D01*
X010330Y017708D01*
X010198Y017840D01*
X010962Y017840D01*
X010830Y017708D01*
X010830Y017252D01*
X011100Y016982D01*
X011100Y016764D01*
X011143Y016661D01*
X011543Y016261D01*
X011621Y016183D01*
X011724Y016140D01*
X017024Y016140D01*
X017040Y016124D01*
X017040Y009751D01*
X016860Y009571D01*
X016860Y009189D01*
X017129Y008920D01*
X017511Y008920D01*
X017780Y009189D01*
X017780Y009571D01*
X017600Y009751D01*
X017600Y016296D01*
X017557Y016399D01*
X017377Y016579D01*
X017299Y016657D01*
X017196Y016700D01*
X011896Y016700D01*
X011660Y016936D01*
X011660Y016982D01*
X011880Y017202D01*
X012152Y016930D01*
X012608Y016930D01*
X012880Y017202D01*
X013152Y016930D01*
X013608Y016930D01*
X013880Y017202D01*
X014152Y016930D01*
X014608Y016930D01*
X014880Y017202D01*
X015152Y016930D01*
X015608Y016930D01*
X015880Y017202D01*
X016152Y016930D01*
X016608Y016930D01*
X016880Y017202D01*
X017152Y016930D01*
X017608Y016930D01*
X017880Y017202D01*
X018152Y016930D01*
X018608Y016930D01*
X018720Y017042D01*
X018720Y011940D01*
X018719Y011932D01*
X018713Y011918D01*
X018702Y011907D01*
X018688Y011901D01*
X018680Y011900D01*
X018628Y011900D01*
X018580Y011880D01*
X018368Y011880D01*
X018273Y011840D01*
X018200Y011767D01*
X018160Y011672D01*
X018160Y007088D01*
X018200Y006993D01*
X018273Y006920D01*
X018368Y006880D01*
X018660Y006880D01*
X018672Y006879D01*
X018693Y006870D01*
X018710Y006853D01*
X018719Y006832D01*
X018720Y006820D01*
X018720Y001278D01*
X018608Y001390D01*
X018152Y001390D01*
X017880Y001118D01*
X017608Y001390D01*
X017152Y001390D01*
X016880Y001118D01*
X016608Y001390D01*
X016152Y001390D01*
X015880Y001118D01*
X015608Y001390D01*
X015152Y001390D01*
X014880Y001118D01*
X014608Y001390D01*
X014152Y001390D01*
X013880Y001118D01*
X013608Y001390D01*
X013152Y001390D01*
X012830Y001068D01*
X012830Y000612D01*
X012942Y000500D01*
X011818Y000500D01*
X011930Y000612D01*
X011930Y001068D01*
X011608Y001390D01*
X011152Y001390D01*
X010866Y001104D01*
X010600Y001370D01*
X010400Y001370D01*
X010400Y000860D01*
X010360Y000860D01*
X010360Y001370D01*
X010160Y001370D01*
X009880Y001090D01*
X009600Y001370D01*
X009400Y001370D01*
X009400Y000860D01*
X009850Y000860D01*
X010360Y000860D01*
X010360Y000820D01*
X009400Y000820D01*
X009400Y000860D01*
X009360Y000860D01*
X009360Y001370D01*
X009160Y001370D01*
X009160Y001370D01*
X009160Y001510D02*
X013494Y001510D01*
X013463Y001541D02*
X013463Y001541D01*
X013363Y001669D02*
X009160Y001669D01*
X009160Y001827D02*
X013340Y001827D01*
X013340Y001986D02*
X009160Y001986D01*
X009160Y002144D02*
X013340Y002144D01*
X013340Y002303D02*
X009160Y002303D01*
X009160Y002461D02*
X012588Y002461D01*
X012569Y002620D02*
X009160Y002620D01*
X009160Y002778D02*
X012569Y002778D01*
X012569Y002758D02*
X012947Y002758D01*
X012947Y003117D01*
X012725Y003117D01*
X012679Y003105D01*
X012638Y003081D01*
X012605Y003047D01*
X012581Y003006D01*
X012569Y002961D01*
X012569Y002758D01*
X012569Y002937D02*
X009160Y002937D01*
X009160Y003095D02*
X012663Y003095D01*
X012947Y003095D02*
X012984Y003095D01*
X012984Y002937D02*
X012947Y002937D01*
X012947Y002778D02*
X012984Y002778D01*
X012984Y002620D02*
X012947Y002620D01*
X012947Y002461D02*
X012984Y002461D01*
X013620Y002725D02*
X013635Y002740D01*
X013620Y002725D02*
X013620Y001780D01*
X013700Y001700D01*
X015620Y001700D01*
X015780Y001860D01*
X015780Y002500D01*
X016260Y002461D02*
X016300Y002461D01*
X016300Y002303D02*
X016260Y002303D01*
X016260Y002144D02*
X016300Y002144D01*
X016358Y001986D02*
X016202Y001986D01*
X016066Y001827D02*
X016494Y001827D01*
X016646Y001352D02*
X017114Y001352D01*
X016955Y001193D02*
X016805Y001193D01*
X017066Y001827D02*
X018720Y001827D01*
X018720Y001669D02*
X015984Y001669D01*
X015826Y001510D02*
X018720Y001510D01*
X018720Y001352D02*
X018646Y001352D01*
X018114Y001352D02*
X017646Y001352D01*
X017805Y001193D02*
X017955Y001193D01*
X017202Y001986D02*
X018720Y001986D01*
X018720Y002144D02*
X017260Y002144D01*
X017578Y002303D02*
X018720Y002303D01*
X018720Y002461D02*
X017737Y002461D01*
X017895Y002620D02*
X018720Y002620D01*
X018720Y002778D02*
X018003Y002778D01*
X018010Y002937D02*
X018720Y002937D01*
X018720Y003095D02*
X018021Y003095D01*
X018179Y003254D02*
X018720Y003254D01*
X018720Y003412D02*
X018190Y003412D01*
X018190Y003571D02*
X018720Y003571D01*
X018720Y003729D02*
X018285Y003729D01*
X018443Y003888D02*
X018720Y003888D01*
X018720Y004046D02*
X018588Y004046D01*
X018620Y004205D02*
X018720Y004205D01*
X018720Y004363D02*
X018620Y004363D01*
X018620Y004522D02*
X018720Y004522D01*
X018720Y004680D02*
X018620Y004680D01*
X018620Y004839D02*
X018720Y004839D01*
X018720Y004997D02*
X018620Y004997D01*
X018620Y005156D02*
X018720Y005156D01*
X018720Y005314D02*
X018620Y005314D01*
X018620Y005473D02*
X018720Y005473D01*
X018720Y005631D02*
X018620Y005631D01*
X018620Y005790D02*
X018720Y005790D01*
X018720Y005948D02*
X018620Y005948D01*
X018620Y006107D02*
X018720Y006107D01*
X018720Y006265D02*
X018620Y006265D01*
X018572Y006424D02*
X018720Y006424D01*
X018720Y006582D02*
X018414Y006582D01*
X018145Y006455D02*
X018340Y006260D01*
X018340Y004180D01*
X018100Y003940D01*
X013787Y003940D01*
X013674Y003827D01*
X014071Y003571D02*
X014901Y003571D01*
X014696Y003412D02*
X014014Y003412D01*
X013976Y003095D02*
X014416Y003095D01*
X014325Y002937D02*
X014051Y002937D01*
X014051Y002778D02*
X014300Y002778D01*
X014300Y002620D02*
X014051Y002620D01*
X014051Y002461D02*
X014300Y002461D01*
X014300Y002303D02*
X013900Y002303D01*
X013900Y002144D02*
X014300Y002144D01*
X014358Y001986D02*
X013900Y001986D01*
X014114Y001352D02*
X013646Y001352D01*
X013805Y001193D02*
X013955Y001193D01*
X014646Y001352D02*
X015114Y001352D01*
X014955Y001193D02*
X014805Y001193D01*
X015646Y001352D02*
X016114Y001352D01*
X015955Y001193D02*
X015805Y001193D01*
X016780Y002500D02*
X017380Y002500D01*
X017730Y002850D01*
X017730Y003455D01*
X017439Y003095D02*
X017144Y003095D01*
X017235Y002937D02*
X017421Y002937D01*
X017281Y003254D02*
X016996Y003254D01*
X016864Y003412D02*
X017270Y003412D01*
X017270Y003571D02*
X016659Y003571D01*
X016580Y003300D02*
X016740Y003140D01*
X016740Y002540D01*
X016780Y002500D01*
X016300Y002620D02*
X016260Y002620D01*
X016260Y002778D02*
X016300Y002778D01*
X016325Y002937D02*
X016235Y002937D01*
X016580Y003300D02*
X014980Y003300D01*
X014780Y003100D01*
X014780Y002500D01*
X014541Y003254D02*
X009160Y003254D01*
X009160Y003412D02*
X011277Y003412D01*
X011203Y003571D02*
X009160Y003571D01*
X009160Y003729D02*
X011203Y003729D01*
X011203Y003888D02*
X009160Y003888D01*
X009160Y004046D02*
X011204Y004046D01*
X011605Y004420D02*
X011620Y004435D01*
X011605Y004420D02*
X009460Y004420D01*
X009220Y004660D01*
X009220Y013860D01*
X009380Y014020D01*
X009380Y014420D01*
X009647Y014507D02*
X017040Y014507D01*
X017040Y014349D02*
X009660Y014349D01*
X009660Y014190D02*
X017040Y014190D01*
X017040Y014032D02*
X009660Y014032D01*
X009622Y013873D02*
X017040Y013873D01*
X017040Y013715D02*
X009500Y013715D01*
X009500Y013556D02*
X017040Y013556D01*
X017040Y013398D02*
X009500Y013398D01*
X009500Y013239D02*
X017040Y013239D01*
X017040Y013081D02*
X009500Y013081D01*
X009500Y012922D02*
X017040Y012922D01*
X017040Y012764D02*
X015320Y012764D01*
X015327Y012760D02*
X015232Y012800D01*
X012928Y012800D01*
X012833Y012760D01*
X012760Y012687D01*
X012720Y012592D01*
X012720Y007188D01*
X012760Y007093D01*
X012833Y007020D01*
X012928Y006980D01*
X013032Y006980D01*
X015232Y006980D01*
X015327Y007020D01*
X015400Y007093D01*
X015440Y007188D01*
X015440Y012592D01*
X015400Y012687D01*
X015327Y012760D01*
X015434Y012605D02*
X017040Y012605D01*
X017040Y012447D02*
X015440Y012447D01*
X015440Y012288D02*
X017040Y012288D01*
X017040Y012130D02*
X015440Y012130D01*
X015440Y011971D02*
X017040Y011971D01*
X017040Y011813D02*
X015440Y011813D01*
X015440Y011654D02*
X017040Y011654D01*
X017040Y011496D02*
X015440Y011496D01*
X015440Y011337D02*
X017040Y011337D01*
X017040Y011179D02*
X015440Y011179D01*
X015440Y011020D02*
X017040Y011020D01*
X017040Y010862D02*
X015440Y010862D01*
X015440Y010703D02*
X017040Y010703D01*
X017040Y010545D02*
X015440Y010545D01*
X015440Y010386D02*
X017040Y010386D01*
X017040Y010228D02*
X015440Y010228D01*
X015440Y010069D02*
X017040Y010069D01*
X017040Y009911D02*
X015440Y009911D01*
X015440Y009752D02*
X016041Y009752D01*
X016129Y009840D02*
X015860Y009571D01*
X015860Y009189D01*
X016040Y009009D01*
X016040Y008249D01*
X016029Y008238D01*
X016029Y007482D01*
X016147Y007365D01*
X016824Y007365D01*
X016851Y007391D01*
X016875Y007385D01*
X017107Y007385D01*
X017107Y007812D01*
X017203Y007812D01*
X017203Y007908D01*
X017591Y007908D01*
X017591Y008179D01*
X017578Y008225D01*
X017555Y008266D01*
X017521Y008299D01*
X017480Y008323D01*
X017434Y008335D01*
X017203Y008335D01*
X017203Y007908D01*
X017107Y007908D01*
X017107Y008335D01*
X016875Y008335D01*
X016851Y008329D01*
X016824Y008355D01*
X016600Y008355D01*
X016600Y009009D01*
X016780Y009189D01*
X016780Y009571D01*
X016511Y009840D01*
X016129Y009840D01*
X015883Y009594D02*
X015440Y009594D01*
X015440Y009435D02*
X015860Y009435D01*
X015860Y009277D02*
X015440Y009277D01*
X015440Y009118D02*
X015931Y009118D01*
X016040Y008960D02*
X015440Y008960D01*
X015440Y008801D02*
X016040Y008801D01*
X016040Y008643D02*
X015440Y008643D01*
X015440Y008484D02*
X016040Y008484D01*
X016040Y008326D02*
X015440Y008326D01*
X015440Y008167D02*
X016029Y008167D01*
X016029Y008009D02*
X015440Y008009D01*
X015440Y007850D02*
X016029Y007850D01*
X016029Y007692D02*
X015440Y007692D01*
X015440Y007533D02*
X016029Y007533D01*
X016137Y007375D02*
X015440Y007375D01*
X015440Y007216D02*
X018160Y007216D01*
X018160Y007375D02*
X016834Y007375D01*
X017107Y007533D02*
X017203Y007533D01*
X017203Y007385D02*
X017434Y007385D01*
X017480Y007397D01*
X017521Y007421D01*
X017555Y007454D01*
X017578Y007495D01*
X017591Y007541D01*
X017591Y007812D01*
X017203Y007812D01*
X017203Y007385D01*
X017203Y007692D02*
X017107Y007692D01*
X017203Y007850D02*
X018160Y007850D01*
X018160Y007692D02*
X017591Y007692D01*
X017588Y007533D02*
X018160Y007533D01*
X018160Y008009D02*
X017591Y008009D01*
X017591Y008167D02*
X018160Y008167D01*
X018160Y008326D02*
X017471Y008326D01*
X017203Y008326D02*
X017107Y008326D01*
X017107Y008167D02*
X017203Y008167D01*
X017203Y008009D02*
X017107Y008009D01*
X016485Y007860D02*
X016320Y008025D01*
X016320Y009380D01*
X016780Y009435D02*
X016860Y009435D01*
X016860Y009277D02*
X016780Y009277D01*
X016709Y009118D02*
X016931Y009118D01*
X017090Y008960D02*
X016600Y008960D01*
X016600Y008801D02*
X018160Y008801D01*
X018160Y008643D02*
X016600Y008643D01*
X016600Y008484D02*
X018160Y008484D01*
X018160Y008960D02*
X017550Y008960D01*
X017709Y009118D02*
X018160Y009118D01*
X018160Y009277D02*
X017780Y009277D01*
X017780Y009435D02*
X018160Y009435D01*
X018160Y009594D02*
X017757Y009594D01*
X017600Y009752D02*
X018160Y009752D01*
X018160Y009911D02*
X017600Y009911D01*
X017600Y010069D02*
X018160Y010069D01*
X018160Y010228D02*
X017600Y010228D01*
X017600Y010386D02*
X018160Y010386D01*
X018160Y010545D02*
X017600Y010545D01*
X017600Y010703D02*
X018160Y010703D01*
X018160Y010862D02*
X017600Y010862D01*
X017600Y011020D02*
X018160Y011020D01*
X018160Y011179D02*
X017600Y011179D01*
X017600Y011337D02*
X018160Y011337D01*
X018160Y011496D02*
X017600Y011496D01*
X017600Y011654D02*
X018160Y011654D01*
X018245Y011813D02*
X017600Y011813D01*
X017600Y011971D02*
X018720Y011971D01*
X018720Y012130D02*
X017600Y012130D01*
X017600Y012288D02*
X018720Y012288D01*
X018720Y012447D02*
X017600Y012447D01*
X017600Y012605D02*
X018720Y012605D01*
X018720Y012764D02*
X017600Y012764D01*
X017600Y012922D02*
X018720Y012922D01*
X018720Y013081D02*
X017600Y013081D01*
X017600Y013239D02*
X018720Y013239D01*
X018720Y013398D02*
X017600Y013398D01*
X017600Y013556D02*
X018720Y013556D01*
X018720Y013715D02*
X017600Y013715D01*
X017600Y013873D02*
X018720Y013873D01*
X018720Y014032D02*
X017600Y014032D01*
X017600Y014190D02*
X018720Y014190D01*
X018720Y014349D02*
X017600Y014349D01*
X017600Y014507D02*
X018720Y014507D01*
X018720Y014666D02*
X017600Y014666D01*
X017600Y014824D02*
X018720Y014824D01*
X018720Y014983D02*
X017600Y014983D01*
X017600Y015141D02*
X018720Y015141D01*
X018720Y015300D02*
X017600Y015300D01*
X017600Y015458D02*
X018720Y015458D01*
X018720Y015617D02*
X017600Y015617D01*
X017600Y015775D02*
X018720Y015775D01*
X018720Y015934D02*
X017600Y015934D01*
X017600Y016092D02*
X018720Y016092D01*
X018720Y016251D02*
X017600Y016251D01*
X017547Y016409D02*
X018720Y016409D01*
X018720Y016568D02*
X017388Y016568D01*
X017140Y016420D02*
X011780Y016420D01*
X011380Y016820D01*
X011380Y017480D01*
X010830Y017519D02*
X010330Y017519D01*
X010330Y017677D02*
X010830Y017677D01*
X010958Y017836D02*
X010202Y017836D01*
X010330Y017360D02*
X010830Y017360D01*
X010881Y017202D02*
X010279Y017202D01*
X010121Y017043D02*
X011039Y017043D01*
X011100Y016885D02*
X009379Y016885D01*
X009439Y017043D02*
X009302Y017043D01*
X009279Y017202D02*
X009281Y017202D01*
X008780Y017480D02*
X009380Y016240D01*
X009380Y016180D01*
X009660Y016251D02*
X011553Y016251D01*
X011543Y016261D02*
X011543Y016261D01*
X011395Y016409D02*
X009609Y016409D01*
X009533Y016568D02*
X011236Y016568D01*
X011116Y016726D02*
X009456Y016726D01*
X008987Y016409D02*
X000440Y016409D01*
X000440Y016251D02*
X009064Y016251D01*
X008910Y016568D02*
X000440Y016568D01*
X000440Y016726D02*
X008834Y016726D01*
X008757Y016885D02*
X000440Y016885D01*
X001121Y017043D02*
X001439Y017043D01*
X001281Y017202D02*
X001279Y017202D01*
X002121Y017043D02*
X002439Y017043D01*
X002281Y017202D02*
X002279Y017202D01*
X003121Y017043D02*
X003467Y017043D01*
X003309Y017202D02*
X003279Y017202D01*
X003760Y017202D02*
X003800Y017202D01*
X003800Y017360D02*
X003760Y017360D01*
X003760Y017043D02*
X003800Y017043D01*
X004093Y017043D02*
X004439Y017043D01*
X004281Y017202D02*
X004251Y017202D01*
X005121Y017043D02*
X005439Y017043D01*
X005281Y017202D02*
X005279Y017202D01*
X006121Y017043D02*
X006439Y017043D01*
X006281Y017202D02*
X006279Y017202D01*
X007121Y017043D02*
X007439Y017043D01*
X007281Y017202D02*
X007279Y017202D01*
X008121Y017043D02*
X008439Y017043D01*
X008281Y017202D02*
X008279Y017202D01*
X007553Y016092D02*
X007235Y016092D01*
X007341Y015934D02*
X007440Y015934D01*
X007400Y015775D02*
X007380Y015775D01*
X007380Y015617D02*
X007400Y015617D01*
X006525Y016092D02*
X006235Y016092D01*
X006341Y015934D02*
X006419Y015934D01*
X006380Y015775D02*
X006380Y015775D01*
X006380Y015617D02*
X006380Y015617D01*
X006380Y015458D02*
X006380Y015458D01*
X006380Y015300D02*
X006380Y015300D01*
X006380Y015141D02*
X006380Y015141D01*
X006356Y014983D02*
X006404Y014983D01*
X006489Y014824D02*
X006271Y014824D01*
X006041Y014666D02*
X006719Y014666D01*
X005719Y014666D02*
X005041Y014666D01*
X005271Y014824D02*
X005489Y014824D01*
X005404Y014983D02*
X005356Y014983D01*
X005380Y015141D02*
X005380Y015141D01*
X005380Y015300D02*
X005380Y015300D01*
X005380Y015458D02*
X005380Y015458D01*
X005380Y015617D02*
X005380Y015617D01*
X005380Y015775D02*
X005380Y015775D01*
X005341Y015934D02*
X005419Y015934D01*
X005525Y016092D02*
X005235Y016092D01*
X004525Y016092D02*
X000440Y016092D01*
X000440Y015934D02*
X004419Y015934D01*
X004380Y015775D02*
X000440Y015775D01*
X000440Y015617D02*
X004380Y015617D01*
X004380Y015458D02*
X000440Y015458D01*
X000488Y015300D02*
X004380Y015300D01*
X004380Y015141D02*
X003654Y015141D01*
X003754Y015100D02*
X003754Y015100D01*
X003871Y014983D02*
X004404Y014983D01*
X004489Y014824D02*
X003977Y014824D01*
X003940Y014914D02*
X003940Y014914D01*
X004040Y014666D02*
X004719Y014666D01*
X009500Y012764D02*
X012840Y012764D01*
X012726Y012605D02*
X009500Y012605D01*
X009500Y012447D02*
X012720Y012447D01*
X012720Y012288D02*
X009500Y012288D01*
X009500Y012130D02*
X012720Y012130D01*
X012720Y011971D02*
X009500Y011971D01*
X009500Y011813D02*
X012720Y011813D01*
X012720Y011654D02*
X009500Y011654D01*
X009500Y011496D02*
X012720Y011496D01*
X012720Y011337D02*
X009500Y011337D01*
X009500Y011179D02*
X012720Y011179D01*
X012720Y011020D02*
X009500Y011020D01*
X009500Y010862D02*
X012720Y010862D01*
X012720Y010703D02*
X009500Y010703D01*
X009500Y010545D02*
X012720Y010545D01*
X012720Y010386D02*
X009500Y010386D01*
X009500Y010228D02*
X012720Y010228D01*
X012720Y010069D02*
X009500Y010069D01*
X009500Y009911D02*
X012720Y009911D01*
X012720Y009752D02*
X009500Y009752D01*
X009500Y009594D02*
X012720Y009594D01*
X012720Y009435D02*
X009500Y009435D01*
X009500Y009277D02*
X012720Y009277D01*
X012720Y009118D02*
X009500Y009118D01*
X009500Y008960D02*
X012720Y008960D01*
X012720Y008801D02*
X009500Y008801D01*
X009500Y008643D02*
X012720Y008643D01*
X012720Y008484D02*
X009500Y008484D01*
X009500Y008326D02*
X012720Y008326D01*
X012720Y008167D02*
X009500Y008167D01*
X009500Y008009D02*
X012720Y008009D01*
X012720Y007850D02*
X009500Y007850D01*
X009500Y007692D02*
X012720Y007692D01*
X012720Y007533D02*
X009500Y007533D01*
X009500Y007375D02*
X012720Y007375D01*
X012720Y007216D02*
X009500Y007216D01*
X009500Y007058D02*
X012795Y007058D01*
X012143Y006724D02*
X012119Y006765D01*
X012085Y006799D01*
X012044Y006823D01*
X011999Y006835D01*
X011697Y006835D01*
X011697Y006417D01*
X011543Y006417D01*
X011543Y006835D01*
X011241Y006835D01*
X011196Y006823D01*
X011155Y006799D01*
X011121Y006765D01*
X011097Y006724D01*
X011085Y006679D01*
X011085Y006417D01*
X011543Y006417D01*
X011543Y006262D01*
X011697Y006262D01*
X011697Y005845D01*
X011999Y005845D01*
X012044Y005857D01*
X012085Y005881D01*
X012119Y005914D01*
X012143Y005955D01*
X012155Y006001D01*
X012155Y006262D01*
X011697Y006262D01*
X011697Y006417D01*
X012155Y006417D01*
X012155Y006679D01*
X012143Y006724D01*
X012133Y006741D02*
X017365Y006741D01*
X017270Y006582D02*
X012155Y006582D01*
X012155Y006424D02*
X017270Y006424D01*
X017270Y006265D02*
X011697Y006265D01*
X011543Y006265D02*
X009500Y006265D01*
X009500Y006107D02*
X011085Y006107D01*
X011085Y006001D02*
X011097Y005955D01*
X011121Y005914D01*
X011155Y005881D01*
X011196Y005857D01*
X011241Y005845D01*
X011543Y005845D01*
X011543Y006262D01*
X011085Y006262D01*
X011085Y006001D01*
X011102Y005948D02*
X009500Y005948D01*
X009500Y005790D02*
X017414Y005790D01*
X017270Y005631D02*
X012162Y005631D01*
X012175Y005473D02*
X017270Y005473D01*
X017270Y005314D02*
X012175Y005314D01*
X012175Y005156D02*
X013007Y005156D01*
X012903Y004997D02*
X012239Y004997D01*
X012147Y004693D02*
X011620Y005220D01*
X011065Y005156D02*
X009500Y005156D01*
X009500Y005314D02*
X011065Y005314D01*
X011065Y005473D02*
X009500Y005473D01*
X009500Y005631D02*
X011078Y005631D01*
X011543Y005948D02*
X011697Y005948D01*
X011697Y006107D02*
X011543Y006107D01*
X011543Y006424D02*
X011697Y006424D01*
X011697Y006582D02*
X011543Y006582D01*
X011543Y006741D02*
X011697Y006741D01*
X011107Y006741D02*
X009500Y006741D01*
X009500Y006899D02*
X017524Y006899D01*
X017730Y006455D02*
X018145Y006455D01*
X018095Y006741D02*
X018720Y006741D01*
X018322Y006899D02*
X017937Y006899D01*
X018173Y007058D02*
X015365Y007058D01*
X017428Y006107D02*
X012155Y006107D01*
X012138Y005948D02*
X018060Y005948D01*
X018046Y005790D02*
X018060Y005790D01*
X018060Y006107D02*
X018032Y006107D01*
X017730Y005455D02*
X017730Y004455D01*
X017450Y004839D02*
X013697Y004839D01*
X013697Y004997D02*
X017450Y004997D01*
X017379Y005156D02*
X013593Y005156D01*
X013697Y004680D02*
X017305Y004680D01*
X017270Y004522D02*
X013697Y004522D01*
X013697Y004363D02*
X017270Y004363D01*
X013300Y004693D02*
X012147Y004693D01*
X011620Y003765D02*
X012864Y003765D01*
X012926Y003827D01*
X013266Y003412D02*
X013334Y003412D01*
X013293Y003095D02*
X013268Y003095D01*
X012586Y003412D02*
X011963Y003412D01*
X011065Y004839D02*
X009500Y004839D01*
X009500Y004997D02*
X011065Y004997D01*
X011085Y006424D02*
X009500Y006424D01*
X009500Y006582D02*
X011085Y006582D01*
X009223Y004261D02*
X009223Y004261D01*
X009280Y004205D02*
X009160Y004205D01*
X009360Y001352D02*
X009400Y001352D01*
X009400Y001193D02*
X009360Y001193D01*
X009360Y001035D02*
X009400Y001035D01*
X009400Y000876D02*
X009360Y000876D01*
X009777Y001193D02*
X009983Y001193D01*
X010142Y001352D02*
X009618Y001352D01*
X010360Y001352D02*
X010400Y001352D01*
X010400Y001193D02*
X010360Y001193D01*
X010360Y001035D02*
X010400Y001035D01*
X010400Y000876D02*
X010360Y000876D01*
X010777Y001193D02*
X010955Y001193D01*
X011114Y001352D02*
X010618Y001352D01*
X011646Y001352D02*
X013114Y001352D01*
X012955Y001193D02*
X011805Y001193D01*
X011930Y001035D02*
X012830Y001035D01*
X012830Y000876D02*
X011930Y000876D01*
X011930Y000718D02*
X012830Y000718D01*
X012883Y000559D02*
X011877Y000559D01*
X017320Y009380D02*
X017320Y016240D01*
X017140Y016420D01*
X017040Y016092D02*
X010235Y016092D01*
X010341Y015934D02*
X017040Y015934D01*
X017040Y015775D02*
X010380Y015775D01*
X010380Y015617D02*
X017040Y015617D01*
X017040Y015458D02*
X010380Y015458D01*
X010380Y015300D02*
X017040Y015300D01*
X017040Y015141D02*
X010380Y015141D01*
X010356Y014983D02*
X017040Y014983D01*
X017040Y014824D02*
X010271Y014824D01*
X010041Y014666D02*
X017040Y014666D01*
X018720Y016726D02*
X011870Y016726D01*
X011711Y016885D02*
X018720Y016885D01*
X018039Y017043D02*
X017721Y017043D01*
X017879Y017202D02*
X017881Y017202D01*
X017039Y017043D02*
X016721Y017043D01*
X016879Y017202D02*
X016881Y017202D01*
X016039Y017043D02*
X015721Y017043D01*
X015879Y017202D02*
X015881Y017202D01*
X015039Y017043D02*
X014721Y017043D01*
X014879Y017202D02*
X014881Y017202D01*
X014039Y017043D02*
X013721Y017043D01*
X013879Y017202D02*
X013881Y017202D01*
X013039Y017043D02*
X012721Y017043D01*
X012879Y017202D02*
X012881Y017202D01*
X012039Y017043D02*
X011721Y017043D01*
X011879Y017202D02*
X011881Y017202D01*
X009719Y014666D02*
X009630Y014666D01*
X016599Y009752D02*
X017040Y009752D01*
X016883Y009594D02*
X016757Y009594D01*
D19*
X010020Y005780D03*
X010020Y003300D03*
D20*
X009380Y014420D02*
X009380Y016180D01*
M02*
